<?xml version="1.0" encoding="utf-8" standalone="no"?>
<!DOCTYPE svg PUBLIC "-//W3C//DTD SVG 1.1//EN"
  "http://www.w3.org/Graphics/SVG/1.1/DTD/svg11.dtd">
<!-- Created with matplotlib (https://matplotlib.org/) -->
<svg height="288pt" version="1.1" viewBox="0 0 432 288" width="432pt" xmlns="http://www.w3.org/2000/svg" xmlns:xlink="http://www.w3.org/1999/xlink">
 <metadata>
  <rdf:RDF xmlns:cc="http://creativecommons.org/ns#" xmlns:dc="http://purl.org/dc/elements/1.1/" xmlns:rdf="http://www.w3.org/1999/02/22-rdf-syntax-ns#">
   <cc:Work>
    <dc:type rdf:resource="http://purl.org/dc/dcmitype/StillImage"/>
    <dc:date>2021-11-17T22:14:55.277278</dc:date>
    <dc:format>image/svg+xml</dc:format>
    <dc:creator>
     <cc:Agent>
      <dc:title>Matplotlib v3.3.2, https://matplotlib.org/</dc:title>
     </cc:Agent>
    </dc:creator>
   </cc:Work>
  </rdf:RDF>
 </metadata>
 <defs>
  <style type="text/css">*{stroke-linecap:butt;stroke-linejoin:round;}</style>
 </defs>
 <g id="figure_1">
  <g id="patch_1">
   <path d="M 0 288 
L 432 288 
L 432 0 
L 0 0 
z
" style="fill:none;"/>
  </g>
  <g id="axes_1">
   <g id="patch_2">
    <path d="M 54 252 
L 388.8 252 
L 388.8 34.56 
L 54 34.56 
z
" style="fill:#ffffff;"/>
   </g>
   <g id="patch_3">
    <path clip-path="url(#p83bdbcd24e)" d="M 54 252 
L 56.6784 252 
L 56.6784 44.914286 
L 54 44.914286 
z
" style="fill:#1f77b4;"/>
   </g>
   <g id="patch_4">
    <path clip-path="url(#p83bdbcd24e)" d="M 56.6784 252 
L 59.3568 252 
L 59.3568 93.45 
L 56.6784 93.45 
z
" style="fill:#1f77b4;"/>
   </g>
   <g id="patch_5">
    <path clip-path="url(#p83bdbcd24e)" d="M 59.3568 252 
L 62.0352 252 
L 62.0352 112.864286 
L 59.3568 112.864286 
z
" style="fill:#1f77b4;"/>
   </g>
   <g id="patch_6">
    <path clip-path="url(#p83bdbcd24e)" d="M 62.0352 252 
L 64.7136 252 
L 64.7136 154.928571 
L 62.0352 154.928571 
z
" style="fill:#1f77b4;"/>
   </g>
   <g id="patch_7">
    <path clip-path="url(#p83bdbcd24e)" d="M 64.7136 252 
L 67.392 252 
L 67.392 164.635714 
L 64.7136 164.635714 
z
" style="fill:#1f77b4;"/>
   </g>
   <g id="patch_8">
    <path clip-path="url(#p83bdbcd24e)" d="M 67.392 252 
L 70.0704 252 
L 70.0704 174.342857 
L 67.392 174.342857 
z
" style="fill:#1f77b4;"/>
   </g>
   <g id="patch_9">
    <path clip-path="url(#p83bdbcd24e)" d="M 70.0704 252 
L 72.7488 252 
L 72.7488 177.578571 
L 70.0704 177.578571 
z
" style="fill:#1f77b4;"/>
   </g>
   <g id="patch_10">
    <path clip-path="url(#p83bdbcd24e)" d="M 72.7488 252 
L 75.4272 252 
L 75.4272 193.757143 
L 72.7488 193.757143 
z
" style="fill:#1f77b4;"/>
   </g>
   <g id="patch_11">
    <path clip-path="url(#p83bdbcd24e)" d="M 75.4272 252 
L 78.1056 252 
L 78.1056 209.935714 
L 75.4272 209.935714 
z
" style="fill:#1f77b4;"/>
   </g>
   <g id="patch_12">
    <path clip-path="url(#p83bdbcd24e)" d="M 78.1056 252 
L 80.784 252 
L 80.784 213.171429 
L 78.1056 213.171429 
z
" style="fill:#1f77b4;"/>
   </g>
   <g id="patch_13">
    <path clip-path="url(#p83bdbcd24e)" d="M 80.784 252 
L 83.4624 252 
L 83.4624 196.992857 
L 80.784 196.992857 
z
" style="fill:#1f77b4;"/>
   </g>
   <g id="patch_14">
    <path clip-path="url(#p83bdbcd24e)" d="M 83.4624 252 
L 86.1408 252 
L 86.1408 222.878571 
L 83.4624 222.878571 
z
" style="fill:#1f77b4;"/>
   </g>
   <g id="patch_15">
    <path clip-path="url(#p83bdbcd24e)" d="M 86.1408 252 
L 88.8192 252 
L 88.8192 232.585714 
L 86.1408 232.585714 
z
" style="fill:#1f77b4;"/>
   </g>
   <g id="patch_16">
    <path clip-path="url(#p83bdbcd24e)" d="M 88.8192 252 
L 91.4976 252 
L 91.4976 235.821429 
L 88.8192 235.821429 
z
" style="fill:#1f77b4;"/>
   </g>
   <g id="patch_17">
    <path clip-path="url(#p83bdbcd24e)" d="M 91.4976 252 
L 94.176 252 
L 94.176 222.878571 
L 91.4976 222.878571 
z
" style="fill:#1f77b4;"/>
   </g>
   <g id="patch_18">
    <path clip-path="url(#p83bdbcd24e)" d="M 94.176 252 
L 96.8544 252 
L 96.8544 235.821429 
L 94.176 235.821429 
z
" style="fill:#1f77b4;"/>
   </g>
   <g id="patch_19">
    <path clip-path="url(#p83bdbcd24e)" d="M 96.8544 252 
L 99.5328 252 
L 99.5328 226.114286 
L 96.8544 226.114286 
z
" style="fill:#1f77b4;"/>
   </g>
   <g id="patch_20">
    <path clip-path="url(#p83bdbcd24e)" d="M 99.5328 252 
L 102.2112 252 
L 102.2112 226.114286 
L 99.5328 226.114286 
z
" style="fill:#1f77b4;"/>
   </g>
   <g id="patch_21">
    <path clip-path="url(#p83bdbcd24e)" d="M 102.2112 252 
L 104.8896 252 
L 104.8896 229.35 
L 102.2112 229.35 
z
" style="fill:#1f77b4;"/>
   </g>
   <g id="patch_22">
    <path clip-path="url(#p83bdbcd24e)" d="M 104.8896 252 
L 107.568 252 
L 107.568 235.821429 
L 104.8896 235.821429 
z
" style="fill:#1f77b4;"/>
   </g>
   <g id="patch_23">
    <path clip-path="url(#p83bdbcd24e)" d="M 107.568 252 
L 110.2464 252 
L 110.2464 235.821429 
L 107.568 235.821429 
z
" style="fill:#1f77b4;"/>
   </g>
   <g id="patch_24">
    <path clip-path="url(#p83bdbcd24e)" d="M 110.2464 252 
L 112.9248 252 
L 112.9248 232.585714 
L 110.2464 232.585714 
z
" style="fill:#1f77b4;"/>
   </g>
   <g id="patch_25">
    <path clip-path="url(#p83bdbcd24e)" d="M 112.9248 252 
L 115.6032 252 
L 115.6032 232.585714 
L 112.9248 232.585714 
z
" style="fill:#1f77b4;"/>
   </g>
   <g id="patch_26">
    <path clip-path="url(#p83bdbcd24e)" d="M 115.6032 252 
L 118.2816 252 
L 118.2816 239.057143 
L 115.6032 239.057143 
z
" style="fill:#1f77b4;"/>
   </g>
   <g id="patch_27">
    <path clip-path="url(#p83bdbcd24e)" d="M 118.2816 252 
L 120.96 252 
L 120.96 239.057143 
L 118.2816 239.057143 
z
" style="fill:#1f77b4;"/>
   </g>
   <g id="patch_28">
    <path clip-path="url(#p83bdbcd24e)" d="M 120.96 252 
L 123.6384 252 
L 123.6384 245.528571 
L 120.96 245.528571 
z
" style="fill:#1f77b4;"/>
   </g>
   <g id="patch_29">
    <path clip-path="url(#p83bdbcd24e)" d="M 123.6384 252 
L 126.3168 252 
L 126.3168 242.292857 
L 123.6384 242.292857 
z
" style="fill:#1f77b4;"/>
   </g>
   <g id="patch_30">
    <path clip-path="url(#p83bdbcd24e)" d="M 126.3168 252 
L 128.9952 252 
L 128.9952 239.057143 
L 126.3168 239.057143 
z
" style="fill:#1f77b4;"/>
   </g>
   <g id="patch_31">
    <path clip-path="url(#p83bdbcd24e)" d="M 128.9952 252 
L 131.6736 252 
L 131.6736 235.821429 
L 128.9952 235.821429 
z
" style="fill:#1f77b4;"/>
   </g>
   <g id="patch_32">
    <path clip-path="url(#p83bdbcd24e)" d="M 131.6736 252 
L 134.352 252 
L 134.352 242.292857 
L 131.6736 242.292857 
z
" style="fill:#1f77b4;"/>
   </g>
   <g id="patch_33">
    <path clip-path="url(#p83bdbcd24e)" d="M 134.352 252 
L 137.0304 252 
L 137.0304 245.528571 
L 134.352 245.528571 
z
" style="fill:#1f77b4;"/>
   </g>
   <g id="patch_34">
    <path clip-path="url(#p83bdbcd24e)" d="M 137.0304 252 
L 139.7088 252 
L 139.7088 245.528571 
L 137.0304 245.528571 
z
" style="fill:#1f77b4;"/>
   </g>
   <g id="patch_35">
    <path clip-path="url(#p83bdbcd24e)" d="M 139.7088 252 
L 142.3872 252 
L 142.3872 242.292857 
L 139.7088 242.292857 
z
" style="fill:#1f77b4;"/>
   </g>
   <g id="patch_36">
    <path clip-path="url(#p83bdbcd24e)" d="M 142.3872 252 
L 145.0656 252 
L 145.0656 252 
L 142.3872 252 
z
" style="fill:#1f77b4;"/>
   </g>
   <g id="patch_37">
    <path clip-path="url(#p83bdbcd24e)" d="M 145.0656 252 
L 147.744 252 
L 147.744 239.057143 
L 145.0656 239.057143 
z
" style="fill:#1f77b4;"/>
   </g>
   <g id="patch_38">
    <path clip-path="url(#p83bdbcd24e)" d="M 147.744 252 
L 150.4224 252 
L 150.4224 252 
L 147.744 252 
z
" style="fill:#1f77b4;"/>
   </g>
   <g id="patch_39">
    <path clip-path="url(#p83bdbcd24e)" d="M 150.4224 252 
L 153.1008 252 
L 153.1008 242.292857 
L 150.4224 242.292857 
z
" style="fill:#1f77b4;"/>
   </g>
   <g id="patch_40">
    <path clip-path="url(#p83bdbcd24e)" d="M 153.1008 252 
L 155.7792 252 
L 155.7792 248.764286 
L 153.1008 248.764286 
z
" style="fill:#1f77b4;"/>
   </g>
   <g id="patch_41">
    <path clip-path="url(#p83bdbcd24e)" d="M 155.7792 252 
L 158.4576 252 
L 158.4576 252 
L 155.7792 252 
z
" style="fill:#1f77b4;"/>
   </g>
   <g id="patch_42">
    <path clip-path="url(#p83bdbcd24e)" d="M 158.4576 252 
L 161.136 252 
L 161.136 242.292857 
L 158.4576 242.292857 
z
" style="fill:#1f77b4;"/>
   </g>
   <g id="patch_43">
    <path clip-path="url(#p83bdbcd24e)" d="M 161.136 252 
L 163.8144 252 
L 163.8144 248.764286 
L 161.136 248.764286 
z
" style="fill:#1f77b4;"/>
   </g>
   <g id="patch_44">
    <path clip-path="url(#p83bdbcd24e)" d="M 163.8144 252 
L 166.4928 252 
L 166.4928 248.764286 
L 163.8144 248.764286 
z
" style="fill:#1f77b4;"/>
   </g>
   <g id="patch_45">
    <path clip-path="url(#p83bdbcd24e)" d="M 166.4928 252 
L 169.1712 252 
L 169.1712 248.764286 
L 166.4928 248.764286 
z
" style="fill:#1f77b4;"/>
   </g>
   <g id="patch_46">
    <path clip-path="url(#p83bdbcd24e)" d="M 169.1712 252 
L 171.8496 252 
L 171.8496 252 
L 169.1712 252 
z
" style="fill:#1f77b4;"/>
   </g>
   <g id="patch_47">
    <path clip-path="url(#p83bdbcd24e)" d="M 171.8496 252 
L 174.528 252 
L 174.528 252 
L 171.8496 252 
z
" style="fill:#1f77b4;"/>
   </g>
   <g id="patch_48">
    <path clip-path="url(#p83bdbcd24e)" d="M 174.528 252 
L 177.2064 252 
L 177.2064 248.764286 
L 174.528 248.764286 
z
" style="fill:#1f77b4;"/>
   </g>
   <g id="patch_49">
    <path clip-path="url(#p83bdbcd24e)" d="M 177.2064 252 
L 179.8848 252 
L 179.8848 248.764286 
L 177.2064 248.764286 
z
" style="fill:#1f77b4;"/>
   </g>
   <g id="patch_50">
    <path clip-path="url(#p83bdbcd24e)" d="M 179.8848 252 
L 182.5632 252 
L 182.5632 248.764286 
L 179.8848 248.764286 
z
" style="fill:#1f77b4;"/>
   </g>
   <g id="patch_51">
    <path clip-path="url(#p83bdbcd24e)" d="M 182.5632 252 
L 185.2416 252 
L 185.2416 248.764286 
L 182.5632 248.764286 
z
" style="fill:#1f77b4;"/>
   </g>
   <g id="patch_52">
    <path clip-path="url(#p83bdbcd24e)" d="M 185.2416 252 
L 187.92 252 
L 187.92 248.764286 
L 185.2416 248.764286 
z
" style="fill:#1f77b4;"/>
   </g>
   <g id="patch_53">
    <path clip-path="url(#p83bdbcd24e)" d="M 187.92 252 
L 190.5984 252 
L 190.5984 245.528571 
L 187.92 245.528571 
z
" style="fill:#1f77b4;"/>
   </g>
   <g id="patch_54">
    <path clip-path="url(#p83bdbcd24e)" d="M 190.5984 252 
L 193.2768 252 
L 193.2768 252 
L 190.5984 252 
z
" style="fill:#1f77b4;"/>
   </g>
   <g id="patch_55">
    <path clip-path="url(#p83bdbcd24e)" d="M 193.2768 252 
L 195.9552 252 
L 195.9552 248.764286 
L 193.2768 248.764286 
z
" style="fill:#1f77b4;"/>
   </g>
   <g id="patch_56">
    <path clip-path="url(#p83bdbcd24e)" d="M 195.9552 252 
L 198.6336 252 
L 198.6336 248.764286 
L 195.9552 248.764286 
z
" style="fill:#1f77b4;"/>
   </g>
   <g id="patch_57">
    <path clip-path="url(#p83bdbcd24e)" d="M 198.6336 252 
L 201.312 252 
L 201.312 252 
L 198.6336 252 
z
" style="fill:#1f77b4;"/>
   </g>
   <g id="patch_58">
    <path clip-path="url(#p83bdbcd24e)" d="M 201.312 252 
L 203.9904 252 
L 203.9904 245.528571 
L 201.312 245.528571 
z
" style="fill:#1f77b4;"/>
   </g>
   <g id="patch_59">
    <path clip-path="url(#p83bdbcd24e)" d="M 203.9904 252 
L 206.6688 252 
L 206.6688 248.764286 
L 203.9904 248.764286 
z
" style="fill:#1f77b4;"/>
   </g>
   <g id="patch_60">
    <path clip-path="url(#p83bdbcd24e)" d="M 206.6688 252 
L 209.3472 252 
L 209.3472 248.764286 
L 206.6688 248.764286 
z
" style="fill:#1f77b4;"/>
   </g>
   <g id="patch_61">
    <path clip-path="url(#p83bdbcd24e)" d="M 209.3472 252 
L 212.0256 252 
L 212.0256 252 
L 209.3472 252 
z
" style="fill:#1f77b4;"/>
   </g>
   <g id="patch_62">
    <path clip-path="url(#p83bdbcd24e)" d="M 212.0256 252 
L 214.704 252 
L 214.704 248.764286 
L 212.0256 248.764286 
z
" style="fill:#1f77b4;"/>
   </g>
   <g id="patch_63">
    <path clip-path="url(#p83bdbcd24e)" d="M 214.704 252 
L 217.3824 252 
L 217.3824 252 
L 214.704 252 
z
" style="fill:#1f77b4;"/>
   </g>
   <g id="patch_64">
    <path clip-path="url(#p83bdbcd24e)" d="M 217.3824 252 
L 220.0608 252 
L 220.0608 252 
L 217.3824 252 
z
" style="fill:#1f77b4;"/>
   </g>
   <g id="patch_65">
    <path clip-path="url(#p83bdbcd24e)" d="M 220.0608 252 
L 222.7392 252 
L 222.7392 242.292857 
L 220.0608 242.292857 
z
" style="fill:#1f77b4;"/>
   </g>
   <g id="patch_66">
    <path clip-path="url(#p83bdbcd24e)" d="M 222.7392 252 
L 225.4176 252 
L 225.4176 252 
L 222.7392 252 
z
" style="fill:#1f77b4;"/>
   </g>
   <g id="patch_67">
    <path clip-path="url(#p83bdbcd24e)" d="M 225.4176 252 
L 228.096 252 
L 228.096 252 
L 225.4176 252 
z
" style="fill:#1f77b4;"/>
   </g>
   <g id="patch_68">
    <path clip-path="url(#p83bdbcd24e)" d="M 228.096 252 
L 230.7744 252 
L 230.7744 248.764286 
L 228.096 248.764286 
z
" style="fill:#1f77b4;"/>
   </g>
   <g id="patch_69">
    <path clip-path="url(#p83bdbcd24e)" d="M 230.7744 252 
L 233.4528 252 
L 233.4528 252 
L 230.7744 252 
z
" style="fill:#1f77b4;"/>
   </g>
   <g id="patch_70">
    <path clip-path="url(#p83bdbcd24e)" d="M 233.4528 252 
L 236.1312 252 
L 236.1312 252 
L 233.4528 252 
z
" style="fill:#1f77b4;"/>
   </g>
   <g id="patch_71">
    <path clip-path="url(#p83bdbcd24e)" d="M 236.1312 252 
L 238.8096 252 
L 238.8096 252 
L 236.1312 252 
z
" style="fill:#1f77b4;"/>
   </g>
   <g id="patch_72">
    <path clip-path="url(#p83bdbcd24e)" d="M 238.8096 252 
L 241.488 252 
L 241.488 252 
L 238.8096 252 
z
" style="fill:#1f77b4;"/>
   </g>
   <g id="patch_73">
    <path clip-path="url(#p83bdbcd24e)" d="M 241.488 252 
L 244.1664 252 
L 244.1664 252 
L 241.488 252 
z
" style="fill:#1f77b4;"/>
   </g>
   <g id="patch_74">
    <path clip-path="url(#p83bdbcd24e)" d="M 244.1664 252 
L 246.8448 252 
L 246.8448 252 
L 244.1664 252 
z
" style="fill:#1f77b4;"/>
   </g>
   <g id="patch_75">
    <path clip-path="url(#p83bdbcd24e)" d="M 246.8448 252 
L 249.5232 252 
L 249.5232 248.764286 
L 246.8448 248.764286 
z
" style="fill:#1f77b4;"/>
   </g>
   <g id="patch_76">
    <path clip-path="url(#p83bdbcd24e)" d="M 249.5232 252 
L 252.2016 252 
L 252.2016 252 
L 249.5232 252 
z
" style="fill:#1f77b4;"/>
   </g>
   <g id="patch_77">
    <path clip-path="url(#p83bdbcd24e)" d="M 252.2016 252 
L 254.88 252 
L 254.88 252 
L 252.2016 252 
z
" style="fill:#1f77b4;"/>
   </g>
   <g id="patch_78">
    <path clip-path="url(#p83bdbcd24e)" d="M 254.88 252 
L 257.5584 252 
L 257.5584 252 
L 254.88 252 
z
" style="fill:#1f77b4;"/>
   </g>
   <g id="patch_79">
    <path clip-path="url(#p83bdbcd24e)" d="M 257.5584 252 
L 260.2368 252 
L 260.2368 252 
L 257.5584 252 
z
" style="fill:#1f77b4;"/>
   </g>
   <g id="patch_80">
    <path clip-path="url(#p83bdbcd24e)" d="M 260.2368 252 
L 262.9152 252 
L 262.9152 248.764286 
L 260.2368 248.764286 
z
" style="fill:#1f77b4;"/>
   </g>
   <g id="patch_81">
    <path clip-path="url(#p83bdbcd24e)" d="M 262.9152 252 
L 265.5936 252 
L 265.5936 252 
L 262.9152 252 
z
" style="fill:#1f77b4;"/>
   </g>
   <g id="patch_82">
    <path clip-path="url(#p83bdbcd24e)" d="M 265.5936 252 
L 268.272 252 
L 268.272 252 
L 265.5936 252 
z
" style="fill:#1f77b4;"/>
   </g>
   <g id="patch_83">
    <path clip-path="url(#p83bdbcd24e)" d="M 268.272 252 
L 270.9504 252 
L 270.9504 252 
L 268.272 252 
z
" style="fill:#1f77b4;"/>
   </g>
   <g id="patch_84">
    <path clip-path="url(#p83bdbcd24e)" d="M 270.9504 252 
L 273.6288 252 
L 273.6288 248.764286 
L 270.9504 248.764286 
z
" style="fill:#1f77b4;"/>
   </g>
   <g id="patch_85">
    <path clip-path="url(#p83bdbcd24e)" d="M 273.6288 252 
L 276.3072 252 
L 276.3072 252 
L 273.6288 252 
z
" style="fill:#1f77b4;"/>
   </g>
   <g id="patch_86">
    <path clip-path="url(#p83bdbcd24e)" d="M 276.3072 252 
L 278.9856 252 
L 278.9856 252 
L 276.3072 252 
z
" style="fill:#1f77b4;"/>
   </g>
   <g id="patch_87">
    <path clip-path="url(#p83bdbcd24e)" d="M 278.9856 252 
L 281.664 252 
L 281.664 252 
L 278.9856 252 
z
" style="fill:#1f77b4;"/>
   </g>
   <g id="patch_88">
    <path clip-path="url(#p83bdbcd24e)" d="M 281.664 252 
L 284.3424 252 
L 284.3424 252 
L 281.664 252 
z
" style="fill:#1f77b4;"/>
   </g>
   <g id="patch_89">
    <path clip-path="url(#p83bdbcd24e)" d="M 284.3424 252 
L 287.0208 252 
L 287.0208 252 
L 284.3424 252 
z
" style="fill:#1f77b4;"/>
   </g>
   <g id="patch_90">
    <path clip-path="url(#p83bdbcd24e)" d="M 287.0208 252 
L 289.6992 252 
L 289.6992 252 
L 287.0208 252 
z
" style="fill:#1f77b4;"/>
   </g>
   <g id="patch_91">
    <path clip-path="url(#p83bdbcd24e)" d="M 289.6992 252 
L 292.3776 252 
L 292.3776 252 
L 289.6992 252 
z
" style="fill:#1f77b4;"/>
   </g>
   <g id="patch_92">
    <path clip-path="url(#p83bdbcd24e)" d="M 292.3776 252 
L 295.056 252 
L 295.056 248.764286 
L 292.3776 248.764286 
z
" style="fill:#1f77b4;"/>
   </g>
   <g id="patch_93">
    <path clip-path="url(#p83bdbcd24e)" d="M 295.056 252 
L 297.7344 252 
L 297.7344 248.764286 
L 295.056 248.764286 
z
" style="fill:#1f77b4;"/>
   </g>
   <g id="patch_94">
    <path clip-path="url(#p83bdbcd24e)" d="M 297.7344 252 
L 300.4128 252 
L 300.4128 248.764286 
L 297.7344 248.764286 
z
" style="fill:#1f77b4;"/>
   </g>
   <g id="patch_95">
    <path clip-path="url(#p83bdbcd24e)" d="M 300.4128 252 
L 303.0912 252 
L 303.0912 248.764286 
L 300.4128 248.764286 
z
" style="fill:#1f77b4;"/>
   </g>
   <g id="patch_96">
    <path clip-path="url(#p83bdbcd24e)" d="M 303.0912 252 
L 305.7696 252 
L 305.7696 252 
L 303.0912 252 
z
" style="fill:#1f77b4;"/>
   </g>
   <g id="patch_97">
    <path clip-path="url(#p83bdbcd24e)" d="M 305.7696 252 
L 308.448 252 
L 308.448 252 
L 305.7696 252 
z
" style="fill:#1f77b4;"/>
   </g>
   <g id="patch_98">
    <path clip-path="url(#p83bdbcd24e)" d="M 308.448 252 
L 311.1264 252 
L 311.1264 252 
L 308.448 252 
z
" style="fill:#1f77b4;"/>
   </g>
   <g id="patch_99">
    <path clip-path="url(#p83bdbcd24e)" d="M 311.1264 252 
L 313.8048 252 
L 313.8048 248.764286 
L 311.1264 248.764286 
z
" style="fill:#1f77b4;"/>
   </g>
   <g id="patch_100">
    <path clip-path="url(#p83bdbcd24e)" d="M 313.8048 252 
L 316.4832 252 
L 316.4832 248.764286 
L 313.8048 248.764286 
z
" style="fill:#1f77b4;"/>
   </g>
   <g id="patch_101">
    <path clip-path="url(#p83bdbcd24e)" d="M 316.4832 252 
L 319.1616 252 
L 319.1616 252 
L 316.4832 252 
z
" style="fill:#1f77b4;"/>
   </g>
   <g id="patch_102">
    <path clip-path="url(#p83bdbcd24e)" d="M 319.1616 252 
L 321.84 252 
L 321.84 252 
L 319.1616 252 
z
" style="fill:#1f77b4;"/>
   </g>
   <g id="patch_103">
    <path clip-path="url(#p83bdbcd24e)" d="M 321.84 252 
L 324.5184 252 
L 324.5184 252 
L 321.84 252 
z
" style="fill:#1f77b4;"/>
   </g>
   <g id="patch_104">
    <path clip-path="url(#p83bdbcd24e)" d="M 324.5184 252 
L 327.1968 252 
L 327.1968 252 
L 324.5184 252 
z
" style="fill:#1f77b4;"/>
   </g>
   <g id="patch_105">
    <path clip-path="url(#p83bdbcd24e)" d="M 327.1968 252 
L 329.8752 252 
L 329.8752 248.764286 
L 327.1968 248.764286 
z
" style="fill:#1f77b4;"/>
   </g>
   <g id="patch_106">
    <path clip-path="url(#p83bdbcd24e)" d="M 329.8752 252 
L 332.5536 252 
L 332.5536 252 
L 329.8752 252 
z
" style="fill:#1f77b4;"/>
   </g>
   <g id="patch_107">
    <path clip-path="url(#p83bdbcd24e)" d="M 332.5536 252 
L 335.232 252 
L 335.232 252 
L 332.5536 252 
z
" style="fill:#1f77b4;"/>
   </g>
   <g id="patch_108">
    <path clip-path="url(#p83bdbcd24e)" d="M 335.232 252 
L 337.9104 252 
L 337.9104 252 
L 335.232 252 
z
" style="fill:#1f77b4;"/>
   </g>
   <g id="patch_109">
    <path clip-path="url(#p83bdbcd24e)" d="M 337.9104 252 
L 340.5888 252 
L 340.5888 252 
L 337.9104 252 
z
" style="fill:#1f77b4;"/>
   </g>
   <g id="patch_110">
    <path clip-path="url(#p83bdbcd24e)" d="M 340.5888 252 
L 343.2672 252 
L 343.2672 248.764286 
L 340.5888 248.764286 
z
" style="fill:#1f77b4;"/>
   </g>
   <g id="patch_111">
    <path clip-path="url(#p83bdbcd24e)" d="M 343.2672 252 
L 345.9456 252 
L 345.9456 252 
L 343.2672 252 
z
" style="fill:#1f77b4;"/>
   </g>
   <g id="patch_112">
    <path clip-path="url(#p83bdbcd24e)" d="M 345.9456 252 
L 348.624 252 
L 348.624 252 
L 345.9456 252 
z
" style="fill:#1f77b4;"/>
   </g>
   <g id="patch_113">
    <path clip-path="url(#p83bdbcd24e)" d="M 348.624 252 
L 351.3024 252 
L 351.3024 252 
L 348.624 252 
z
" style="fill:#1f77b4;"/>
   </g>
   <g id="patch_114">
    <path clip-path="url(#p83bdbcd24e)" d="M 351.3024 252 
L 353.9808 252 
L 353.9808 252 
L 351.3024 252 
z
" style="fill:#1f77b4;"/>
   </g>
   <g id="patch_115">
    <path clip-path="url(#p83bdbcd24e)" d="M 353.9808 252 
L 356.6592 252 
L 356.6592 248.764286 
L 353.9808 248.764286 
z
" style="fill:#1f77b4;"/>
   </g>
   <g id="patch_116">
    <path clip-path="url(#p83bdbcd24e)" d="M 356.6592 252 
L 359.3376 252 
L 359.3376 252 
L 356.6592 252 
z
" style="fill:#1f77b4;"/>
   </g>
   <g id="patch_117">
    <path clip-path="url(#p83bdbcd24e)" d="M 359.3376 252 
L 362.016 252 
L 362.016 252 
L 359.3376 252 
z
" style="fill:#1f77b4;"/>
   </g>
   <g id="patch_118">
    <path clip-path="url(#p83bdbcd24e)" d="M 362.016 252 
L 364.6944 252 
L 364.6944 252 
L 362.016 252 
z
" style="fill:#1f77b4;"/>
   </g>
   <g id="patch_119">
    <path clip-path="url(#p83bdbcd24e)" d="M 364.6944 252 
L 367.3728 252 
L 367.3728 252 
L 364.6944 252 
z
" style="fill:#1f77b4;"/>
   </g>
   <g id="patch_120">
    <path clip-path="url(#p83bdbcd24e)" d="M 367.3728 252 
L 370.0512 252 
L 370.0512 252 
L 367.3728 252 
z
" style="fill:#1f77b4;"/>
   </g>
   <g id="patch_121">
    <path clip-path="url(#p83bdbcd24e)" d="M 370.0512 252 
L 372.7296 252 
L 372.7296 252 
L 370.0512 252 
z
" style="fill:#1f77b4;"/>
   </g>
   <g id="patch_122">
    <path clip-path="url(#p83bdbcd24e)" d="M 372.7296 252 
L 375.408 252 
L 375.408 252 
L 372.7296 252 
z
" style="fill:#1f77b4;"/>
   </g>
   <g id="patch_123">
    <path clip-path="url(#p83bdbcd24e)" d="M 375.408 252 
L 378.0864 252 
L 378.0864 252 
L 375.408 252 
z
" style="fill:#1f77b4;"/>
   </g>
   <g id="patch_124">
    <path clip-path="url(#p83bdbcd24e)" d="M 378.0864 252 
L 380.7648 252 
L 380.7648 252 
L 378.0864 252 
z
" style="fill:#1f77b4;"/>
   </g>
   <g id="patch_125">
    <path clip-path="url(#p83bdbcd24e)" d="M 380.7648 252 
L 383.4432 252 
L 383.4432 252 
L 380.7648 252 
z
" style="fill:#1f77b4;"/>
   </g>
   <g id="patch_126">
    <path clip-path="url(#p83bdbcd24e)" d="M 383.4432 252 
L 386.1216 252 
L 386.1216 252 
L 383.4432 252 
z
" style="fill:#1f77b4;"/>
   </g>
   <g id="matplotlib.axis_1">
    <g id="xtick_1">
     <g id="line2d_1">
      <defs>
       <path d="M 0 0 
L 0 3.5 
" id="m74d8f16e89" style="stroke:#000000;stroke-width:0.8;"/>
      </defs>
      <g>
       <use style="stroke:#000000;stroke-width:0.8;" x="54" xlink:href="#m74d8f16e89" y="252"/>
      </g>
     </g>
     <g id="text_1">
      <!-- 0 -->
      <g transform="translate(50.81875 266.598437)scale(0.1 -0.1)">
       <defs>
        <path d="M 31.78125 66.40625 
Q 24.171875 66.40625 20.328125 58.90625 
Q 16.5 51.421875 16.5 36.375 
Q 16.5 21.390625 20.328125 13.890625 
Q 24.171875 6.390625 31.78125 6.390625 
Q 39.453125 6.390625 43.28125 13.890625 
Q 47.125 21.390625 47.125 36.375 
Q 47.125 51.421875 43.28125 58.90625 
Q 39.453125 66.40625 31.78125 66.40625 
z
M 31.78125 74.21875 
Q 44.046875 74.21875 50.515625 64.515625 
Q 56.984375 54.828125 56.984375 36.375 
Q 56.984375 17.96875 50.515625 8.265625 
Q 44.046875 -1.421875 31.78125 -1.421875 
Q 19.53125 -1.421875 13.0625 8.265625 
Q 6.59375 17.96875 6.59375 36.375 
Q 6.59375 54.828125 13.0625 64.515625 
Q 19.53125 74.21875 31.78125 74.21875 
z
" id="DejaVuSans-48"/>
       </defs>
       <use xlink:href="#DejaVuSans-48"/>
      </g>
     </g>
    </g>
    <g id="xtick_2">
     <g id="line2d_2">
      <g>
       <use style="stroke:#000000;stroke-width:0.8;" x="107.568" xlink:href="#m74d8f16e89" y="252"/>
      </g>
     </g>
     <g id="text_2">
      <!-- 200 -->
      <g transform="translate(98.02425 266.598437)scale(0.1 -0.1)">
       <defs>
        <path d="M 19.1875 8.296875 
L 53.609375 8.296875 
L 53.609375 0 
L 7.328125 0 
L 7.328125 8.296875 
Q 12.9375 14.109375 22.625 23.890625 
Q 32.328125 33.6875 34.8125 36.53125 
Q 39.546875 41.84375 41.421875 45.53125 
Q 43.3125 49.21875 43.3125 52.78125 
Q 43.3125 58.59375 39.234375 62.25 
Q 35.15625 65.921875 28.609375 65.921875 
Q 23.96875 65.921875 18.8125 64.3125 
Q 13.671875 62.703125 7.8125 59.421875 
L 7.8125 69.390625 
Q 13.765625 71.78125 18.9375 73 
Q 24.125 74.21875 28.421875 74.21875 
Q 39.75 74.21875 46.484375 68.546875 
Q 53.21875 62.890625 53.21875 53.421875 
Q 53.21875 48.921875 51.53125 44.890625 
Q 49.859375 40.875 45.40625 35.40625 
Q 44.1875 33.984375 37.640625 27.21875 
Q 31.109375 20.453125 19.1875 8.296875 
z
" id="DejaVuSans-50"/>
       </defs>
       <use xlink:href="#DejaVuSans-50"/>
       <use x="63.623047" xlink:href="#DejaVuSans-48"/>
       <use x="127.246094" xlink:href="#DejaVuSans-48"/>
      </g>
     </g>
    </g>
    <g id="xtick_3">
     <g id="line2d_3">
      <g>
       <use style="stroke:#000000;stroke-width:0.8;" x="161.136" xlink:href="#m74d8f16e89" y="252"/>
      </g>
     </g>
     <g id="text_3">
      <!-- 400 -->
      <g transform="translate(151.59225 266.598437)scale(0.1 -0.1)">
       <defs>
        <path d="M 37.796875 64.3125 
L 12.890625 25.390625 
L 37.796875 25.390625 
z
M 35.203125 72.90625 
L 47.609375 72.90625 
L 47.609375 25.390625 
L 58.015625 25.390625 
L 58.015625 17.1875 
L 47.609375 17.1875 
L 47.609375 0 
L 37.796875 0 
L 37.796875 17.1875 
L 4.890625 17.1875 
L 4.890625 26.703125 
z
" id="DejaVuSans-52"/>
       </defs>
       <use xlink:href="#DejaVuSans-52"/>
       <use x="63.623047" xlink:href="#DejaVuSans-48"/>
       <use x="127.246094" xlink:href="#DejaVuSans-48"/>
      </g>
     </g>
    </g>
    <g id="xtick_4">
     <g id="line2d_4">
      <g>
       <use style="stroke:#000000;stroke-width:0.8;" x="214.704" xlink:href="#m74d8f16e89" y="252"/>
      </g>
     </g>
     <g id="text_4">
      <!-- 600 -->
      <g transform="translate(205.16025 266.598437)scale(0.1 -0.1)">
       <defs>
        <path d="M 33.015625 40.375 
Q 26.375 40.375 22.484375 35.828125 
Q 18.609375 31.296875 18.609375 23.390625 
Q 18.609375 15.53125 22.484375 10.953125 
Q 26.375 6.390625 33.015625 6.390625 
Q 39.65625 6.390625 43.53125 10.953125 
Q 47.40625 15.53125 47.40625 23.390625 
Q 47.40625 31.296875 43.53125 35.828125 
Q 39.65625 40.375 33.015625 40.375 
z
M 52.59375 71.296875 
L 52.59375 62.3125 
Q 48.875 64.0625 45.09375 64.984375 
Q 41.3125 65.921875 37.59375 65.921875 
Q 27.828125 65.921875 22.671875 59.328125 
Q 17.53125 52.734375 16.796875 39.40625 
Q 19.671875 43.65625 24.015625 45.921875 
Q 28.375 48.1875 33.59375 48.1875 
Q 44.578125 48.1875 50.953125 41.515625 
Q 57.328125 34.859375 57.328125 23.390625 
Q 57.328125 12.15625 50.6875 5.359375 
Q 44.046875 -1.421875 33.015625 -1.421875 
Q 20.359375 -1.421875 13.671875 8.265625 
Q 6.984375 17.96875 6.984375 36.375 
Q 6.984375 53.65625 15.1875 63.9375 
Q 23.390625 74.21875 37.203125 74.21875 
Q 40.921875 74.21875 44.703125 73.484375 
Q 48.484375 72.75 52.59375 71.296875 
z
" id="DejaVuSans-54"/>
       </defs>
       <use xlink:href="#DejaVuSans-54"/>
       <use x="63.623047" xlink:href="#DejaVuSans-48"/>
       <use x="127.246094" xlink:href="#DejaVuSans-48"/>
      </g>
     </g>
    </g>
    <g id="xtick_5">
     <g id="line2d_5">
      <g>
       <use style="stroke:#000000;stroke-width:0.8;" x="268.272" xlink:href="#m74d8f16e89" y="252"/>
      </g>
     </g>
     <g id="text_5">
      <!-- 800 -->
      <g transform="translate(258.72825 266.598437)scale(0.1 -0.1)">
       <defs>
        <path d="M 31.78125 34.625 
Q 24.75 34.625 20.71875 30.859375 
Q 16.703125 27.09375 16.703125 20.515625 
Q 16.703125 13.921875 20.71875 10.15625 
Q 24.75 6.390625 31.78125 6.390625 
Q 38.8125 6.390625 42.859375 10.171875 
Q 46.921875 13.96875 46.921875 20.515625 
Q 46.921875 27.09375 42.890625 30.859375 
Q 38.875 34.625 31.78125 34.625 
z
M 21.921875 38.8125 
Q 15.578125 40.375 12.03125 44.71875 
Q 8.5 49.078125 8.5 55.328125 
Q 8.5 64.0625 14.71875 69.140625 
Q 20.953125 74.21875 31.78125 74.21875 
Q 42.671875 74.21875 48.875 69.140625 
Q 55.078125 64.0625 55.078125 55.328125 
Q 55.078125 49.078125 51.53125 44.71875 
Q 48 40.375 41.703125 38.8125 
Q 48.828125 37.15625 52.796875 32.3125 
Q 56.78125 27.484375 56.78125 20.515625 
Q 56.78125 9.90625 50.3125 4.234375 
Q 43.84375 -1.421875 31.78125 -1.421875 
Q 19.734375 -1.421875 13.25 4.234375 
Q 6.78125 9.90625 6.78125 20.515625 
Q 6.78125 27.484375 10.78125 32.3125 
Q 14.796875 37.15625 21.921875 38.8125 
z
M 18.3125 54.390625 
Q 18.3125 48.734375 21.84375 45.5625 
Q 25.390625 42.390625 31.78125 42.390625 
Q 38.140625 42.390625 41.71875 45.5625 
Q 45.3125 48.734375 45.3125 54.390625 
Q 45.3125 60.0625 41.71875 63.234375 
Q 38.140625 66.40625 31.78125 66.40625 
Q 25.390625 66.40625 21.84375 63.234375 
Q 18.3125 60.0625 18.3125 54.390625 
z
" id="DejaVuSans-56"/>
       </defs>
       <use xlink:href="#DejaVuSans-56"/>
       <use x="63.623047" xlink:href="#DejaVuSans-48"/>
       <use x="127.246094" xlink:href="#DejaVuSans-48"/>
      </g>
     </g>
    </g>
    <g id="xtick_6">
     <g id="line2d_6">
      <g>
       <use style="stroke:#000000;stroke-width:0.8;" x="321.84" xlink:href="#m74d8f16e89" y="252"/>
      </g>
     </g>
     <g id="text_6">
      <!-- 1000 -->
      <g transform="translate(309.115 266.598437)scale(0.1 -0.1)">
       <defs>
        <path d="M 12.40625 8.296875 
L 28.515625 8.296875 
L 28.515625 63.921875 
L 10.984375 60.40625 
L 10.984375 69.390625 
L 28.421875 72.90625 
L 38.28125 72.90625 
L 38.28125 8.296875 
L 54.390625 8.296875 
L 54.390625 0 
L 12.40625 0 
z
" id="DejaVuSans-49"/>
       </defs>
       <use xlink:href="#DejaVuSans-49"/>
       <use x="63.623047" xlink:href="#DejaVuSans-48"/>
       <use x="127.246094" xlink:href="#DejaVuSans-48"/>
       <use x="190.869141" xlink:href="#DejaVuSans-48"/>
      </g>
     </g>
    </g>
    <g id="xtick_7">
     <g id="line2d_7">
      <g>
       <use style="stroke:#000000;stroke-width:0.8;" x="375.408" xlink:href="#m74d8f16e89" y="252"/>
      </g>
     </g>
     <g id="text_7">
      <!-- 1200 -->
      <g transform="translate(362.683 266.598437)scale(0.1 -0.1)">
       <use xlink:href="#DejaVuSans-49"/>
       <use x="63.623047" xlink:href="#DejaVuSans-50"/>
       <use x="127.246094" xlink:href="#DejaVuSans-48"/>
       <use x="190.869141" xlink:href="#DejaVuSans-48"/>
      </g>
     </g>
    </g>
   </g>
   <g id="matplotlib.axis_2">
    <g id="ytick_1">
     <g id="line2d_8">
      <defs>
       <path d="M 0 0 
L -3.5 0 
" id="m9774a77909" style="stroke:#000000;stroke-width:0.8;"/>
      </defs>
      <g>
       <use style="stroke:#000000;stroke-width:0.8;" x="54" xlink:href="#m9774a77909" y="252"/>
      </g>
     </g>
     <g id="text_8">
      <!-- 0 -->
      <g transform="translate(40.6375 255.799219)scale(0.1 -0.1)">
       <use xlink:href="#DejaVuSans-48"/>
      </g>
     </g>
    </g>
    <g id="ytick_2">
     <g id="line2d_9">
      <g>
       <use style="stroke:#000000;stroke-width:0.8;" x="54" xlink:href="#m9774a77909" y="219.642857"/>
      </g>
     </g>
     <g id="text_9">
      <!-- 10 -->
      <g transform="translate(34.275 223.442076)scale(0.1 -0.1)">
       <use xlink:href="#DejaVuSans-49"/>
       <use x="63.623047" xlink:href="#DejaVuSans-48"/>
      </g>
     </g>
    </g>
    <g id="ytick_3">
     <g id="line2d_10">
      <g>
       <use style="stroke:#000000;stroke-width:0.8;" x="54" xlink:href="#m9774a77909" y="187.285714"/>
      </g>
     </g>
     <g id="text_10">
      <!-- 20 -->
      <g transform="translate(34.275 191.084933)scale(0.1 -0.1)">
       <use xlink:href="#DejaVuSans-50"/>
       <use x="63.623047" xlink:href="#DejaVuSans-48"/>
      </g>
     </g>
    </g>
    <g id="ytick_4">
     <g id="line2d_11">
      <g>
       <use style="stroke:#000000;stroke-width:0.8;" x="54" xlink:href="#m9774a77909" y="154.928571"/>
      </g>
     </g>
     <g id="text_11">
      <!-- 30 -->
      <g transform="translate(34.275 158.72779)scale(0.1 -0.1)">
       <defs>
        <path d="M 40.578125 39.3125 
Q 47.65625 37.796875 51.625 33 
Q 55.609375 28.21875 55.609375 21.1875 
Q 55.609375 10.40625 48.1875 4.484375 
Q 40.765625 -1.421875 27.09375 -1.421875 
Q 22.515625 -1.421875 17.65625 -0.515625 
Q 12.796875 0.390625 7.625 2.203125 
L 7.625 11.71875 
Q 11.71875 9.328125 16.59375 8.109375 
Q 21.484375 6.890625 26.8125 6.890625 
Q 36.078125 6.890625 40.9375 10.546875 
Q 45.796875 14.203125 45.796875 21.1875 
Q 45.796875 27.640625 41.28125 31.265625 
Q 36.765625 34.90625 28.71875 34.90625 
L 20.21875 34.90625 
L 20.21875 43.015625 
L 29.109375 43.015625 
Q 36.375 43.015625 40.234375 45.921875 
Q 44.09375 48.828125 44.09375 54.296875 
Q 44.09375 59.90625 40.109375 62.90625 
Q 36.140625 65.921875 28.71875 65.921875 
Q 24.65625 65.921875 20.015625 65.03125 
Q 15.375 64.15625 9.8125 62.3125 
L 9.8125 71.09375 
Q 15.4375 72.65625 20.34375 73.4375 
Q 25.25 74.21875 29.59375 74.21875 
Q 40.828125 74.21875 47.359375 69.109375 
Q 53.90625 64.015625 53.90625 55.328125 
Q 53.90625 49.265625 50.4375 45.09375 
Q 46.96875 40.921875 40.578125 39.3125 
z
" id="DejaVuSans-51"/>
       </defs>
       <use xlink:href="#DejaVuSans-51"/>
       <use x="63.623047" xlink:href="#DejaVuSans-48"/>
      </g>
     </g>
    </g>
    <g id="ytick_5">
     <g id="line2d_12">
      <g>
       <use style="stroke:#000000;stroke-width:0.8;" x="54" xlink:href="#m9774a77909" y="122.571429"/>
      </g>
     </g>
     <g id="text_12">
      <!-- 40 -->
      <g transform="translate(34.275 126.370647)scale(0.1 -0.1)">
       <use xlink:href="#DejaVuSans-52"/>
       <use x="63.623047" xlink:href="#DejaVuSans-48"/>
      </g>
     </g>
    </g>
    <g id="ytick_6">
     <g id="line2d_13">
      <g>
       <use style="stroke:#000000;stroke-width:0.8;" x="54" xlink:href="#m9774a77909" y="90.214286"/>
      </g>
     </g>
     <g id="text_13">
      <!-- 50 -->
      <g transform="translate(34.275 94.013504)scale(0.1 -0.1)">
       <defs>
        <path d="M 10.796875 72.90625 
L 49.515625 72.90625 
L 49.515625 64.59375 
L 19.828125 64.59375 
L 19.828125 46.734375 
Q 21.96875 47.46875 24.109375 47.828125 
Q 26.265625 48.1875 28.421875 48.1875 
Q 40.625 48.1875 47.75 41.5 
Q 54.890625 34.8125 54.890625 23.390625 
Q 54.890625 11.625 47.5625 5.09375 
Q 40.234375 -1.421875 26.90625 -1.421875 
Q 22.3125 -1.421875 17.546875 -0.640625 
Q 12.796875 0.140625 7.71875 1.703125 
L 7.71875 11.625 
Q 12.109375 9.234375 16.796875 8.0625 
Q 21.484375 6.890625 26.703125 6.890625 
Q 35.15625 6.890625 40.078125 11.328125 
Q 45.015625 15.765625 45.015625 23.390625 
Q 45.015625 31 40.078125 35.4375 
Q 35.15625 39.890625 26.703125 39.890625 
Q 22.75 39.890625 18.8125 39.015625 
Q 14.890625 38.140625 10.796875 36.28125 
z
" id="DejaVuSans-53"/>
       </defs>
       <use xlink:href="#DejaVuSans-53"/>
       <use x="63.623047" xlink:href="#DejaVuSans-48"/>
      </g>
     </g>
    </g>
    <g id="ytick_7">
     <g id="line2d_14">
      <g>
       <use style="stroke:#000000;stroke-width:0.8;" x="54" xlink:href="#m9774a77909" y="57.857143"/>
      </g>
     </g>
     <g id="text_14">
      <!-- 60 -->
      <g transform="translate(34.275 61.656362)scale(0.1 -0.1)">
       <use xlink:href="#DejaVuSans-54"/>
       <use x="63.623047" xlink:href="#DejaVuSans-48"/>
      </g>
     </g>
    </g>
   </g>
   <g id="patch_127">
    <path d="M 54 252 
L 54 34.56 
" style="fill:none;stroke:#000000;stroke-linecap:square;stroke-linejoin:miter;stroke-width:0.8;"/>
   </g>
   <g id="patch_128">
    <path d="M 388.8 252 
L 388.8 34.56 
" style="fill:none;stroke:#000000;stroke-linecap:square;stroke-linejoin:miter;stroke-width:0.8;"/>
   </g>
   <g id="patch_129">
    <path d="M 54 252 
L 388.8 252 
" style="fill:none;stroke:#000000;stroke-linecap:square;stroke-linejoin:miter;stroke-width:0.8;"/>
   </g>
   <g id="patch_130">
    <path d="M 54 34.56 
L 388.8 34.56 
" style="fill:none;stroke:#000000;stroke-linecap:square;stroke-linejoin:miter;stroke-width:0.8;"/>
   </g>
  </g>
 </g>
 <defs>
  <clipPath id="p83bdbcd24e">
   <rect height="217.44" width="334.8" x="54" y="34.56"/>
  </clipPath>
 </defs>
</svg>
